# xmcd
#
# Track frame offsets:
#	150
#	16399
#	29607
#	42735
#	56318
#	72012
#	86466
#	103467
#	114083
#	125825
#
# Disc length: 1852 seconds
#
# Revision: 1
# Processed by: cddbd v1.5.2PL0 Copyright (c) Steve Scherf et al.
# Submitted via: audiograbber 1.83.01
#
DISCID=87073a0a
DTITLE=Mel McDaniel - Naturally Country
DYEAR=1983
DGENRE=Country
TTITLE0=Old Man River (I've Come to Talk Again)
TTITLE1=Gathering
TTITLE2=Mountain Eyes
TTITLE3=Some Folks Are Dying to Live Like This
TTITLE4=Nobody Said It Was Easy
TTITLE5=Livin' for the Weekend
TTITLE6=Just Because It Feels Good
TTITLE7=Hard Earned Country Livin'
TTITLE8=Hot Time in Old Town Tonight
TTITLE9=Maximum Living on a Minimum Wage
EXTD=
EXTT0=
EXTT1=
EXTT2=
EXTT3=
EXTT4=
EXTT5=
EXTT6=
EXTT7=
EXTT8=
EXTT9=
PLAYORDER=
